<?xml version="1.0" encoding="utf-8"?>
<svg fill="#FFFFFF" version="1.1" id="Layer_1" xmlns="http://www.w3.org/2000/svg" xmlns:xlink="http://www.w3.org/1999/xlink" x="0px" y="0px"
	 viewBox="0 0 48 48" style="enable-background:new 0 0 48 48;" xml:space="preserve">
<g>
    <path d="M31.9,0H16.5C7.6,0,0,8.3,0,18.2c0,9.1,6,16.1,12.1,17.9V47c0,0.4,0.2,0.7,0.6,0.9c0.1,0.1,0.3,0.1,0.4,0.1
    	c0.2,0,0.5-0.1,0.7-0.2l13.7-11.4h4.5C40.6,36.3,48,28,48,18.2C48,8.3,40.6,0,31.9,0z M35.6,12.2h-3.9c0,1.9-0.5,6.5-5.5,11.2
    	c-0.2,0.2-0.4,0.4-0.6,0.6c1.9,1.8,4.3,3.6,7.4,5.3l-0.7,1.3c-3.3-1.8-5.8-3.7-7.8-5.6c-4.1,3.5-8.2,5.5-8.4,5.6l-0.7-1.3
    	c0,0,4.1-2,8-5.3c-4.1-4.2-5.1-7.9-5.2-8.1l1.4-0.4c0,0.1,1.1,3.5,4.9,7.5c0.2-0.2,0.4-0.4,0.6-0.6c4.6-4.4,5-8.6,5-10.1H12v-1.5
    	h11.1V5.1h1.5v5.5h11.1V12.2z"/>
</g>
</svg>
