<?xml version="1.0" encoding="utf-8"?>
<!-- Generator: Adobe Illustrator 19.2.1, SVG Export Plug-In . SVG Version: 6.00 Build 0)  -->
<svg version="1.1" id="Layer_1" xmlns="http://www.w3.org/2000/svg" xmlns:xlink="http://www.w3.org/1999/xlink" x="0px" y="0px"
	 viewBox="0 0 48 28" style="enable-background:new 0 0 48 28;" xml:space="preserve">
<style type="text/css">
	.st0{fill:#FFFFFF;}
</style>
<g>
	<path class="st0" d="M3.5,11.2C2,11.7,0.8,12.7,0,13.9v13.5h12V13.9c-0.9-1.3-2.2-2.2-3.8-2.7c1.2-0.5,2.2-1.5,2.8-2.7L7.4,6h4.2
		c0-3.2-2.6-6-5.8-6S0,2.6,0,5.8C-0.1,8.3,1.4,10.3,3.5,11.2z"/>
	<path class="st0" d="M36.9,8.5c0.6,1.2,1.6,2.1,2.8,2.7c-1.6,0.5-2.9,1.5-3.8,2.8v13.4h12V13.9c-0.8-1.2-2.1-2.1-3.6-2.7
		c2.1-0.9,3.6-3,3.6-5.4c0-3.2-2.6-5.8-5.8-5.8s-5.8,2.8-5.8,6h4.2L36.9,8.5z"/>
	<path class="st0" d="M29.9,13.9c-0.9-1.3-2.3-2.3-3.9-2.7c2.1-0.8,3.6-2.9,3.6-5.3c0-3.2-2.6-5.7-5.7-5.7c-3.2,0-5.7,2.6-5.7,5.7
		c0,2.4,1.5,4.4,3.6,5.3c-1.6,0.5-2.9,1.5-3.8,2.8v13.4h12L29.9,13.9z M27.3,6l-3.4,2.5L20.5,6H27.3z"/>
	<polygon class="st0" points="17.8,6.6 16.6,5.7 12.3,5.7 12.3,7.4 16.6,7.4 	"/>
	<polygon class="st0" points="11.3,8.7 12.5,9.6 16.9,9.6 16.9,7.9 12.5,7.9 	"/>
	<polygon class="st0" points="36,6.6 34.8,5.7 30.4,5.7 30.4,7.4 34.8,7.4 	"/>
	<polygon class="st0" points="29.5,8.7 30.7,9.6 35,9.6 35,7.9 30.7,7.9 	"/>
</g>
</svg>
